<svg width="18" height="15" viewBox="0 0 18 15" fill="none" xmlns="http://www.w3.org/2000/svg">
<path fill-rule="evenodd" clip-rule="evenodd" d="M0 7.5C0 7.21589 0.112862 6.94342 0.313758 6.74252C0.514653 6.54163 0.787126 6.42876 1.07124 6.42876H13.4826L8.88268 1.83102C8.78308 1.73142 8.70408 1.61318 8.65017 1.48305C8.59627 1.35292 8.56853 1.21344 8.56853 1.07259C8.56853 0.931733 8.59627 0.792257 8.65017 0.662126C8.70408 0.531993 8.78308 0.413752 8.88268 0.314153C8.98228 0.214554 9.10052 0.135548 9.23065 0.081645C9.36079 0.0277424 9.50026 0 9.64112 0C9.78197 0 9.92145 0.0277424 10.0516 0.081645C10.1817 0.135548 10.3 0.214554 10.3996 0.314153L16.827 6.74156C16.9267 6.84107 17.0059 6.95929 17.0599 7.08943C17.1139 7.21958 17.1417 7.35909 17.1417 7.5C17.1417 7.6409 17.1139 7.78042 17.0599 7.91057C17.0059 8.04071 16.9267 8.15893 16.827 8.25843L10.3996 14.6858C10.3 14.7854 10.1817 14.8645 10.0516 14.9184C9.92145 14.9723 9.78197 15 9.64112 15C9.50026 15 9.36079 14.9723 9.23065 14.9184C9.10052 14.8645 8.98228 14.7854 8.88268 14.6858C8.68153 14.4847 8.56853 14.2119 8.56853 13.9274C8.56853 13.7866 8.59627 13.6471 8.65017 13.5169C8.70408 13.3868 8.78308 13.2686 8.88268 13.169L13.4826 8.57123H1.07124C0.787126 8.57123 0.514653 8.45837 0.313758 8.25748C0.112862 8.05658 0 7.78411 0 7.5Z" fill="#13293D"/>
</svg>
