<svg width="12" height="9" viewBox="0 0 12 9" fill="none" xmlns="http://www.w3.org/2000/svg">
<path d="M5.50595 8.74209C5.561 8.82204 5.63465 8.88741 5.72058 8.93257C5.8065 8.97773 5.90212 9.00132 5.99919 9.00132C6.09626 9.00132 6.19187 8.97773 6.27779 8.93257C6.36372 8.88741 6.43738 8.82204 6.49243 8.74209L11.8928 0.941474C11.9554 0.851501 11.992 0.746118 11.9988 0.636774C12.0057 0.527429 11.9824 0.418307 11.9315 0.321262C11.8807 0.224216 11.8042 0.14296 11.7105 0.0863217C11.6167 0.0296832 11.5092 -0.00017182 11.3996 7.4385e-07H0.598764C0.489461 0.000452225 0.38235 0.0306911 0.288948 0.0874653C0.195546 0.14424 0.119388 0.225401 0.0686635 0.322222C0.0179391 0.419042 -0.00543232 0.527859 0.00106256 0.636969C0.00755745 0.746079 0.0436729 0.851355 0.105525 0.941474L5.50595 8.74209Z" fill="#13293D"/>
</svg>
