<svg width="60" height="48" viewBox="0 0 60 48" fill="none" xmlns="http://www.w3.org/2000/svg">
<path d="M4.28613 21.4287H30.0006V25.7144H4.28613V21.4287Z" fill="#FC8510"/>
<path d="M0 10.7144H21.4287V15.0001H0V10.7144Z" fill="#FC8510"/>
<path d="M59.8267 22.7273L53.3981 7.72718C53.2332 7.34164 52.9586 7.01304 52.6085 6.78218C52.2584 6.55132 51.8482 6.42838 51.4288 6.42861H45.0002V2.14287C45.0002 1.57454 44.7745 1.0295 44.3726 0.627632C43.9707 0.225766 43.4257 0 42.8574 0H8.57146V4.28574H40.7145V31.1916C39.7381 31.7586 38.8835 32.5133 38.2002 33.4121C37.5168 34.311 37.0182 35.3363 36.733 36.4288H23.2673C22.7457 34.4088 21.5053 32.6483 19.7786 31.4775C18.052 30.3066 15.9575 29.8056 13.8879 30.0685C11.8183 30.3314 9.91561 31.34 8.53648 32.9054C7.15736 34.4708 6.39648 36.4854 6.39648 38.5716C6.39648 40.6579 7.15736 42.6725 8.53648 44.2379C9.91561 45.8033 11.8183 46.8119 13.8879 47.0748C15.9575 47.3377 18.052 46.8367 19.7786 45.6658C21.5053 44.4949 22.7457 42.7345 23.2673 40.7145H36.733C37.1992 42.5536 38.2653 44.1847 39.7626 45.3499C41.2599 46.515 43.103 47.1477 45.0002 47.1477C46.8975 47.1477 48.7406 46.515 50.2379 45.3499C51.7352 44.1847 52.8013 42.5536 53.2674 40.7145H57.8574C58.4258 40.7145 58.9708 40.4887 59.3727 40.0869C59.7745 39.685 60.0003 39.14 60.0003 38.5716V23.5716C60.0004 23.2813 59.9414 22.994 59.8267 22.7273ZM15.0001 42.8574C14.1524 42.8574 13.3238 42.606 12.619 42.1351C11.9143 41.6642 11.3649 40.9948 11.0406 40.2117C10.7162 39.4286 10.6313 38.5669 10.7967 37.7355C10.962 36.9042 11.3702 36.1405 11.9696 35.5412C12.569 34.9418 13.3326 34.5336 14.164 34.3682C14.9953 34.2029 15.857 34.2878 16.6401 34.6121C17.4233 34.9365 18.0926 35.4858 18.5635 36.1906C19.0344 36.8954 19.2858 37.724 19.2858 38.5716C19.2847 39.7079 18.8328 40.7974 18.0293 41.6009C17.2258 42.4043 16.1364 42.8562 15.0001 42.8574ZM45.0002 10.7143H50.0145L54.6088 21.4287H45.0002V10.7143ZM45.0002 42.8574C44.1526 42.8574 43.324 42.606 42.6192 42.1351C41.9144 41.6642 41.3651 40.9948 41.0407 40.2117C40.7163 39.4286 40.6315 38.5669 40.7968 37.7355C40.9622 36.9042 41.3704 36.1405 41.9698 35.5412C42.5691 34.9418 43.3328 34.5336 44.1641 34.3682C44.9955 34.2029 45.8572 34.2878 46.6403 34.6121C47.4234 34.9365 48.0928 35.4858 48.5637 36.1906C49.0346 36.8954 49.286 37.724 49.286 38.5716C49.2848 39.7079 48.8329 40.7974 48.0294 41.6009C47.226 42.4043 46.1365 42.8562 45.0002 42.8574ZM55.7146 36.4288H53.2674C52.7954 34.5933 51.7276 32.9663 50.2315 31.8029C48.7354 30.6395 46.8955 30.0054 45.0002 30.0002V25.7144H55.7146V36.4288Z" fill="#FC8510"/>
</svg>
