<svg width="15" height="12" viewBox="0 0 15 12" fill="none" xmlns="http://www.w3.org/2000/svg">
<path fill-rule="evenodd" clip-rule="evenodd" d="M0.576923 0C0.423914 0 0.277171 0.0663086 0.168977 0.184339C0.0607828 0.302368 0 0.462451 0 0.629371C0 0.79629 0.0607828 0.956373 0.168977 1.0744C0.277171 1.19243 0.423914 1.25874 0.576923 1.25874H14.4231C14.5761 1.25874 14.7228 1.19243 14.831 1.0744C14.9392 0.956373 15 0.79629 15 0.629371C15 0.462451 14.9392 0.302368 14.831 0.184339C14.7228 0.0663086 14.5761 0 14.4231 0H0.576923ZM0 5.66434C0 5.49742 0.0607828 5.33733 0.168977 5.2193C0.277171 5.10127 0.423914 5.03497 0.576923 5.03497H14.4231C14.5761 5.03497 14.7228 5.10127 14.831 5.2193C14.9392 5.33733 15 5.49742 15 5.66434C15 5.83125 14.9392 5.99134 14.831 6.10937C14.7228 6.2274 14.5761 6.29371 14.4231 6.29371H0.576923C0.423914 6.29371 0.277171 6.2274 0.168977 6.10937C0.0607828 5.99134 0 5.83125 0 5.66434ZM0 10.6993C0 10.5324 0.0607828 10.3723 0.168977 10.2543C0.277171 10.1362 0.423914 10.0699 0.576923 10.0699H14.4231C14.5761 10.0699 14.7228 10.1362 14.831 10.2543C14.9392 10.3723 15 10.5324 15 10.6993C15 10.8662 14.9392 11.0263 14.831 11.1443C14.7228 11.2624 14.5761 11.3287 14.4231 11.3287H0.576923C0.423914 11.3287 0.277171 11.2624 0.168977 11.1443C0.0607828 11.0263 0 10.8662 0 10.6993Z" fill="black"/>
</svg>
