<svg width="60" height="56" viewBox="0 0 60 56" fill="none" xmlns="http://www.w3.org/2000/svg">
<path d="M58.8903 12.051L37.4619 0.265346C37.1454 0.0912751 36.7902 0 36.429 0C36.0679 0 35.7126 0.0912751 35.3962 0.265346L13.9677 12.051C13.6318 12.236 13.3516 12.5077 13.1565 12.8379C12.9613 13.1681 12.8584 13.5446 12.8584 13.9281C12.8584 14.3116 12.9613 14.6881 13.1565 15.0183C13.3516 15.3485 13.6318 15.6203 13.9677 15.8052L34.2862 26.9802V49.9493L27.7805 46.3708L25.7148 50.1229L35.3962 55.4478C35.7125 55.6223 36.0678 55.7138 36.429 55.7138C36.7902 55.7138 37.1456 55.6223 37.4619 55.4478L58.8903 43.6622C59.2264 43.4773 59.5067 43.2056 59.7019 42.8754C59.8972 42.5452 60.0002 42.1687 60.0003 41.7851V13.9281C60.0002 13.5445 59.8972 13.168 59.7019 12.8378C59.5067 12.5076 59.2264 12.2359 58.8903 12.051ZM36.429 4.5896L53.411 13.9281L36.429 23.2666L19.447 13.9281L36.429 4.5896ZM55.7146 40.5187L38.5719 49.9472V26.978L55.7146 17.5495V40.5187Z" fill="#FC8510"/>
<path d="M17.1427 27.857H0V23.5713H17.1427V27.857Z" fill="#FC8510"/>
<path d="M21.4289 44.9997H4.28613V40.7141H21.4289V44.9997Z" fill="#FC8510"/>
<path d="M25.714 36.4283H8.57129V32.1426H25.714V36.4283Z" fill="#FC8510"/>
</svg>
