<svg width="60" height="43" viewBox="0 0 60 43" fill="none" xmlns="http://www.w3.org/2000/svg">
<path d="M41.25 28.4998C40.6533 28.4998 40.081 28.7368 39.659 29.1588C39.2371 29.5807 39 30.153 39 30.7498C39 31.3465 39.2371 31.9188 39.659 32.3407C40.081 32.7627 40.6533 32.9998 41.25 32.9998H48.75C49.3467 32.9998 49.919 32.7627 50.341 32.3407C50.7629 31.9188 51 31.3465 51 30.7498C51 30.153 50.7629 29.5807 50.341 29.1588C49.919 28.7368 49.3467 28.4998 48.75 28.4998H41.25Z" fill="#FC8510"/>
<path d="M6.875 0C5.05164 0 3.30295 0.724328 2.01364 2.01364C0.724328 3.30295 0 5.05164 0 6.875V35.625C0 37.4484 0.724328 39.197 2.01364 40.4864C3.30295 41.7757 5.05164 42.5 6.875 42.5H53.125C54.9484 42.5 56.697 41.7757 57.9864 40.4864C59.2757 39.197 60 37.4484 60 35.625V6.875C60 5.05164 59.2757 3.30295 57.9864 2.01364C56.697 0.724328 54.9484 0 53.125 0H6.875ZM3.75 35.625V16.25H56.25V35.625C56.25 37.35 54.85 38.75 53.125 38.75H6.875C5.15 38.75 3.75 37.35 3.75 35.625ZM3.75 12.5V6.875C3.75 5.15 5.15 3.75 6.875 3.75H53.125C54.85 3.75 56.25 5.15 56.25 6.875V12.5H3.75Z" fill="#FC8510"/>
</svg>
