<svg width="60" height="60" viewBox="0 0 60 60" fill="none" xmlns="http://www.w3.org/2000/svg">
<path d="M12 48H3.99999C2.93945 47.9989 1.92265 47.5771 1.17274 46.8272C0.422825 46.0773 0.00105895 45.0605 0 44V36H3.99999V44H12V48Z" fill="#FC8510"/>
<path d="M0 19.9998H3.99999V27.9998H0V19.9998Z" fill="#FC8510"/>
<path d="M48 12H44V3.99999H36V0H44C45.0605 0.00105895 46.0773 0.422825 46.8272 1.17274C47.5771 1.92265 47.9989 2.93945 48 3.99999V12Z" fill="#FC8510"/>
<path d="M20 0H28V3.99999H20V0Z" fill="#FC8510"/>
<path d="M3.99999 12H0V3.99999C0.00105895 2.93945 0.422825 1.92265 1.17274 1.17274C1.92265 0.422825 2.93945 0.00105895 3.99999 0H12V3.99999H3.99999V12Z" fill="#FC8510"/>
<path d="M50.0001 59.9999C49.7374 60.0001 49.4773 59.9485 49.2346 59.8479C48.992 59.7474 48.7716 59.5999 48.5861 59.4139L36.3101 47.1379L29.6641 57.1099C29.4535 57.4257 29.1574 57.6751 28.8103 57.8289C28.4632 57.9827 28.0795 58.0345 27.704 57.9783C27.3286 57.9221 26.9769 57.7601 26.69 57.5115C26.4032 57.2628 26.193 56.9376 26.0842 56.5739L14.0842 16.574C13.9805 16.2282 13.9724 15.8607 14.0607 15.5106C14.1491 15.1605 14.3305 14.8409 14.5858 14.5856C14.8411 14.3303 15.1607 14.1489 15.5108 14.0606C15.8609 13.9723 16.2283 13.9804 16.5742 14.084L56.5741 26.084C56.9378 26.1928 57.2629 26.403 57.5116 26.6898C57.7603 26.9767 57.9222 27.3284 57.9785 27.7038C58.0347 28.0793 57.9829 28.463 57.8291 28.8101C57.6753 29.1572 57.4259 29.4534 57.1101 29.664L47.1381 36.3099L59.414 48.5859C59.789 48.961 59.9996 49.4696 59.9996 49.9999C59.9996 50.5302 59.789 51.0388 59.414 51.4139L51.4141 59.4139C51.2286 59.5999 51.0082 59.7474 50.7655 59.8479C50.5229 59.9485 50.2627 60.0001 50.0001 59.9999ZM50.0001 55.1719L55.1721 49.9999L40.8621 35.6899L51.3541 28.694L18.9842 18.984L28.6941 51.3539L35.6901 40.8619L50.0001 55.1719Z" fill="#FC8510"/>
</svg>
